<?xml version="1.0" encoding="UTF-8"?>
<!DOCTYPE svg PUBLIC "-//W3C//DTD SVG 1.0//EN" "http://www.w3.org/TR/2001/REC-SVG-20010904/DTD/svg10.dtd">
<!-- Creator: CorelDRAW X7 -->
<svg xmlns="http://www.w3.org/2000/svg" xml:space="preserve" width="0.666638in" height="0.666665in" version="1.0" style="shape-rendering:geometricPrecision; text-rendering:geometricPrecision; image-rendering:optimizeQuality; fill-rule:evenodd; clip-rule:evenodd"
viewBox="0 0 60 60"
 xmlns:xlink="http://www.w3.org/1999/xlink">
 <defs>
  <style type="text/css">
   <![CDATA[
    .fil0 {fill:#49509E}
   ]]>
  </style>
 </defs>
 <g id="Layer_x0020_1">
  <metadata id="CorelCorpID_0Corel-Layer"/>
  <path class="fil0" d="M27 0c-2,1 -3,0 -6,1 -1,1 -2,1 -3,1 0,1 -1,1 -2,2 -3,1 -6,4 -9,6 -8,9 -9,23 -3,34 4,8 12,14 21,15 4,1 7,1 11,0 1,0 0,0 3,-1 5,-1 10,-4 13,-8 3,-3 5,-6 6,-10 1,-3 2,-8 2,-13 -1,-2 -1,-3 -2,-6 -2,-7 -6,-13 -13,-17 -1,-1 -3,-1 -5,-2 -4,-1 -9,-3 -13,-2zm10 16c-2,1 -2,1 -3,3 -1,0 -2,1 -2,1 0,1 1,1 1,2 2,1 4,4 6,5 1,1 1,1 2,0 1,-2 3,-3 2,-6 0,-3 -3,-5 -6,-5zm-20 23c0,3 1,3 4,3 5,0 8,-4 12,-7 2,-2 1,-1 -1,-4 -1,-1 -2,-2 -3,-2 -3,-4 -2,-4 -5,-1 -3,3 -7,6 -7,11zm10 -31c-3,0 -5,1 -8,2 -8,5 -12,13 -11,23 1,11 12,21 25,19 3,0 6,-1 8,-3 2,-1 4,-3 6,-5 2,-2 3,-4 4,-7 3,-8 0,-18 -7,-24 -4,-4 -11,-6 -17,-5z"/>
 </g>
</svg>
