<?xml version="1.0" encoding="UTF-8"?>
<!DOCTYPE svg PUBLIC "-//W3C//DTD SVG 1.0//EN" "http://www.w3.org/TR/2001/REC-SVG-20010904/DTD/svg10.dtd">
<!-- Creator: CorelDRAW X7 -->
<svg xmlns="http://www.w3.org/2000/svg" xml:space="preserve" width="1.425in" height="1.425in" version="1.0" style="shape-rendering:geometricPrecision; text-rendering:geometricPrecision; image-rendering:optimizeQuality; fill-rule:evenodd; clip-rule:evenodd"
viewBox="0 0 726 726"
 xmlns:xlink="http://www.w3.org/1999/xlink">
 <defs>
  <style type="text/css">
   <![CDATA[
    .fil4 {fill:none}
    .fil1 {fill:#FDD54E}
    .fil5 {fill:#FBE5B9}
    .fil3 {fill:#F7BF4E}
    .fil2 {fill:#F4B03D}
    .fil6 {fill:#F0A230}
    .fil0 {fill:#D17D2B}
    .fil7 {fill:#3A3B3A}
   ]]>
  </style>
     <clipPath id="id0">
      <path d="M344 617c152,0 274,-123 274,-274 0,-151 -122,-274 -274,-274 -151,0 -273,123 -273,274 0,151 122,274 273,274z"/>
     </clipPath>
 </defs>
 <g id="Layer_x0020_1">
  <metadata id="CorelCorpID_0Corel-Layer"/>
  <g id="_1359330850544">
   <g>
    <circle class="fil0" cx="363" cy="363" r="363"/>
    <path class="fil1" d="M344 671c182,0 328,-147 328,-328 0,-181 -146,-328 -328,-328 -181,0 -327,147 -327,328 0,181 146,328 327,328zm0 -40c160,0 288,-129 288,-288 0,-159 -128,-288 -288,-288 -159,0 -287,129 -287,288 0,159 128,288 287,288z"/>
    <path class="fil2" d="M344 617c152,0 274,-123 274,-274 0,-151 -122,-274 -274,-274 -151,0 -273,123 -273,274 0,151 122,274 273,274z"/>
    <g style="clip-path:url(#id0)">
     <g>
      <circle class="fil3" cx="343" cy="126" r="274"/>
     </g>
    </g>
    <path class="fil4" d="M344 617c152,0 274,-123 274,-274 0,-151 -122,-274 -274,-274 -151,0 -273,123 -273,274 0,151 122,274 273,274z"/>
    <path class="fil5" d="M170 142c13,-13 29,-18 35,-9 6,8 -1,26 -14,40 -14,13 -29,18 -35,9 -6,-8 0,-26 14,-40zm44 -9c7,0 12,-6 12,-12 0,-7 -5,-12 -12,-12 -6,0 -12,5 -12,12 0,6 6,12 12,12z"/>
    <path class="fil6" d="M511 503c13,-14 29,-18 35,-10 6,9 0,27 -14,40 -13,14 -29,18 -35,10 -6,-9 0,-26 14,-40zm44 -10c7,0 12,-5 12,-12 0,-6 -5,-11 -12,-11 -6,0 -11,5 -11,11 0,7 5,12 11,12z"/>
   </g>
   <path class="fil7" d="M486 205c7,0 12,0 15,0 4,1 7,2 11,5 5,2 8,6 9,11 2,6 3,13 3,22 0,9 -1,17 -3,22 -1,6 -4,10 -9,12 -4,2 -8,3 -11,4 -4,0 -9,0 -16,0l-132 0 0 44 85 0c7,0 12,0 16,1 3,0 7,1 11,4 8,4 11,15 11,34 0,20 -5,32 -16,36 -5,1 -12,2 -22,2l-85 0 0 81c0,7 0,12 0,16 -1,3 -2,6 -4,11 -5,8 -16,11 -34,11 -20,0 -32,-5 -36,-16 -1,-5 -2,-12 -2,-22l0 -81 -36 0c-10,0 -18,-1 -22,-2 -11,-4 -17,-16 -17,-36 0,-19 4,-30 12,-34 4,-3 8,-4 11,-4 3,-1 9,-1 15,-1l37 0 0 -82c0,-15 3,-25 8,-30 5,-6 16,-8 31,-8l170 0z"/>
  </g>
 </g>
</svg>
