<?xml version="1.0" encoding="UTF-8"?>
<!DOCTYPE svg PUBLIC "-//W3C//DTD SVG 1.0//EN" "http://www.w3.org/TR/2001/REC-SVG-20010904/DTD/svg10.dtd">
<!-- Creator: CorelDRAW X7 -->
<svg xmlns="http://www.w3.org/2000/svg" xml:space="preserve" width="1.425in" height="1.425in" version="1.0" style="shape-rendering:geometricPrecision; text-rendering:geometricPrecision; image-rendering:optimizeQuality; fill-rule:evenodd; clip-rule:evenodd"
viewBox="0 0 4353 4353"
 xmlns:xlink="http://www.w3.org/1999/xlink">
 <defs>
  <style type="text/css">
   <![CDATA[
    .fil4 {fill:none}
    .fil1 {fill:#FDD54E}
    .fil5 {fill:#FBE5B9}
    .fil3 {fill:#F7BF4E}
    .fil2 {fill:#F4B03D}
    .fil6 {fill:#F0A230}
    .fil0 {fill:#D17D2B}
    .fil7 {fill:#3A3B3A}
   ]]>
  </style>
     <clipPath id="id0">
      <path d="M2065 3697c906,0 1641,-735 1641,-1641 0,-907 -735,-1642 -1641,-1642 -907,0 -1641,735 -1641,1642 0,906 734,1641 1641,1641z"/>
     </clipPath>
 </defs>
 <g id="Layer_x0020_1">
  <metadata id="CorelCorpID_0Corel-Layer"/>
  <g id="_1359333286720">
   <g>
    <circle class="fil0" cx="2177" cy="2177" r="2177"/>
    <path class="fil1" d="M2065 4021c1085,0 1965,-880 1965,-1965 0,-1086 -880,-1966 -1965,-1966 -1086,0 -1965,880 -1965,1966 0,1085 879,1965 1965,1965zm0 -240c953,0 1726,-772 1726,-1725 0,-953 -773,-1726 -1726,-1726 -953,0 -1726,773 -1726,1726 0,953 773,1725 1726,1725z"/>
    <path class="fil2" d="M2065 3697c906,0 1641,-735 1641,-1641 0,-907 -735,-1642 -1641,-1642 -907,0 -1641,735 -1641,1642 0,906 734,1641 1641,1641z"/>
    <g style="clip-path:url(#id0)">
     <g>
      <circle class="fil3" cx="2058" cy="752" r="1641"/>
     </g>
    </g>
    <path class="fil4" d="M2065 3697c906,0 1641,-735 1641,-1641 0,-907 -735,-1642 -1641,-1642 -907,0 -1641,735 -1641,1642 0,906 734,1641 1641,1641z"/>
    <path class="fil5" d="M1017 854c81,-83 175,-108 211,-58 35,50 -3,157 -84,239 -81,83 -175,108 -210,58 -35,-50 2,-157 83,-239zm266 -59c39,0 70,-32 70,-71 0,-39 -31,-70 -70,-70 -39,0 -71,31 -71,70 0,39 32,71 71,71z"/>
    <path class="fil6" d="M3062 3014c81,-82 176,-108 211,-58 35,50 -3,158 -84,240 -81,82 -175,108 -210,57 -35,-50 2,-157 83,-239zm266 -59c39,0 70,-31 70,-70 0,-39 -31,-71 -70,-71 -39,0 -70,32 -70,71 0,39 31,70 70,70z"/>
   </g>
   <path class="fil7" d="M2463 1163c-36,4 -79,4 -112,14 -34,10 -66,14 -101,25 -67,22 -116,46 -174,83 -45,28 -98,85 -123,132 -61,116 -3,174 -45,171 -183,-13 -335,2 -480,60 -119,48 -223,128 -262,249 -15,46 -7,726 -8,882 0,54 0,72 12,117 5,17 35,68 45,81 31,42 87,92 135,116 29,14 58,28 89,41 74,32 133,39 205,51 75,13 218,18 298,1 53,-12 84,-10 157,-34 147,-49 309,-139 329,-310 2,-17 -1,-50 2,-63 4,-19 30,-11 52,-10 198,6 371,-16 529,-106 15,-8 26,-17 39,-27 82,-65 96,-79 137,-183 16,-40 7,-188 7,-243l0 -638c1,-120 -31,-181 -120,-260 -140,-123 -422,-174 -611,-149zm126 249c-108,0 -161,3 -267,34 -34,10 -155,60 -144,101 11,40 118,79 154,90 90,27 123,30 219,30 64,0 159,-3 218,-26 40,-15 137,-39 164,-85 30,-51 -142,-116 -177,-122 -55,-10 -111,-22 -167,-22zm-829 679c100,0 182,1 274,-35 107,-42 212,-82 67,-156 -165,-84 -449,-83 -613,-1 -103,52 -86,78 -24,118 72,46 202,74 296,74zm416 188c-14,-1 -110,39 -176,49 -163,25 -240,24 -412,0 -28,-4 -63,-14 -88,-22 -24,-8 -65,-28 -86,-27 -4,24 -2,51 -2,76 0,34 -2,41 17,60 45,46 155,80 217,91 48,9 95,9 149,9 120,0 168,-7 266,-43 33,-12 76,-34 97,-55 19,-19 19,-23 18,-58 0,-26 2,-55 0,-80zm-1 425c-15,-2 -77,23 -97,30 -165,52 -425,46 -591,-7 -16,-5 -30,-12 -47,-19 -34,-12 -28,6 -28,36 1,58 -11,71 29,106 37,34 128,63 186,77 136,31 334,14 465,-43 20,-9 64,-36 77,-55 13,-17 11,-101 6,-125zm402 -359l-118 -4c-41,-2 -29,9 -29,132 0,40 12,38 48,40 142,8 290,-2 411,-72 64,-37 54,-61 51,-160 -22,-2 -59,15 -81,23 -79,28 -194,41 -282,41zm12 -422l-158 -6c-2,27 -1,56 -1,83 0,12 1,25 0,38 0,57 -4,51 159,51 98,0 135,-9 214,-35 35,-11 59,-22 88,-39 60,-36 53,-61 48,-160 -26,0 -97,36 -162,46 -33,5 -52,13 -89,14 -39,0 -60,8 -99,8z"/>
  </g>
 </g>
</svg>
