<?xml version="1.0" encoding="UTF-8"?>
<!DOCTYPE svg PUBLIC "-//W3C//DTD SVG 1.0//EN" "http://www.w3.org/TR/2001/REC-SVG-20010904/DTD/svg10.dtd">
<!-- Creator: CorelDRAW X7 -->
<svg xmlns="http://www.w3.org/2000/svg" xml:space="preserve" width="0.665988in" height="0.666071in" version="1.0" style="shape-rendering:geometricPrecision; text-rendering:geometricPrecision; image-rendering:optimizeQuality; fill-rule:evenodd; clip-rule:evenodd"
viewBox="0 0 150 150"
 xmlns:xlink="http://www.w3.org/1999/xlink">
 <defs>
  <style type="text/css">
   <![CDATA[
    .fil0 {fill:#F4F8F8}
   ]]>
  </style>
 </defs>
 <g id="Layer_x0020_1">
  <metadata id="CorelCorpID_0Corel-Layer"/>
  <path class="fil0" d="M50 119l0 15c0,11 10,18 20,15 3,-1 8,-5 11,-7 7,-7 11,-13 15,-22 7,-15 -2,-4 16,-20 22,-18 36,-43 37,-72 1,-7 1,-10 -2,-16 -2,-4 -5,-7 -9,-9 -4,-3 -9,-3 -15,-3 -11,1 -20,3 -30,6 -9,4 -17,8 -24,13 -3,3 -7,6 -10,8 -3,3 -6,6 -9,10 -3,3 -5,6 -8,10 -1,1 -1,1 -2,2 -1,2 -1,2 -3,2 -10,4 -21,9 -28,17 -6,7 -13,16 -6,25 6,10 16,6 30,7 9,0 17,9 17,19zm44 -81c-5,1 -7,2 -10,6 -5,6 -4,16 4,22 11,8 26,-2 24,-16 -1,-7 -9,-14 -18,-12zm-73 74c-7,1 -8,3 -11,8 -3,4 -12,22 -9,27 3,5 9,2 13,0 5,-1 14,-6 19,-9 4,-4 6,-14 1,-20 -3,-4 -7,-6 -13,-6zm21 -30l1 1c2,1 6,1 14,9 2,1 4,4 6,6 2,5 2,6 4,9 1,0 10,-5 13,-6 2,-1 3,-3 5,-4 5,-3 12,-9 17,-12 3,-4 6,-6 9,-10 13,-13 18,-29 20,-47 1,-9 0,-10 -9,-9 -3,0 -6,1 -8,1 -6,1 -11,2 -16,4 -18,7 -30,19 -42,34 -2,4 -5,8 -7,12 -2,3 -5,9 -7,12z"/>
 </g>
</svg>
