<?xml version="1.0" encoding="UTF-8"?>
<!DOCTYPE svg PUBLIC "-//W3C//DTD SVG 1.0//EN" "http://www.w3.org/TR/2001/REC-SVG-20010904/DTD/svg10.dtd">
<!-- Creator: CorelDRAW X7 -->
<svg xmlns="http://www.w3.org/2000/svg" xml:space="preserve" width="0.666748in" height="0.666299in" version="1.0" style="shape-rendering:geometricPrecision; text-rendering:geometricPrecision; image-rendering:optimizeQuality; fill-rule:evenodd; clip-rule:evenodd"
viewBox="0 0 59 59"
 xmlns:xlink="http://www.w3.org/1999/xlink">
 <defs>
  <style type="text/css">
   <![CDATA[
    .fil0 {fill:#F4F8F8}
   ]]>
  </style>
 </defs>
 <g id="Layer_x0020_1">
  <metadata id="CorelCorpID_0Corel-Layer"/>
  <path class="fil0" d="M0 28l0 25c0,3 3,6 6,6l47 0c3,0 6,-3 6,-6l0 -25c0,-5 -3,-7 -5,-9l-15 -15c-2,-2 -5,-4 -10,-4 -4,0 -7,2 -10,4 -2,3 -4,5 -7,7 -1,2 -9,10 -10,11 -1,2 -2,3 -2,6zm7 0l0 23c3,0 11,0 13,0 0,-2 0,-4 0,-6 0,-3 0,-4 1,-6 3,-6 14,-6 17,0 2,4 1,8 1,12l12 0c1,-1 0,-17 0,-20 0,-1 0,-2 0,-3 0,-1 0,-2 -1,-2 -4,-5 -9,-9 -13,-14 -3,-2 -5,-6 -9,-5 -2,1 -3,2 -4,3l-15 15c-1,1 -2,2 -2,3z"/>
 </g>
</svg>
