<?xml version="1.0" encoding="UTF-8"?>
<!DOCTYPE svg PUBLIC "-//W3C//DTD SVG 1.0//EN" "http://www.w3.org/TR/2001/REC-SVG-20010904/DTD/svg10.dtd">
<!-- Creator: CorelDRAW X7 -->
<svg xmlns="http://www.w3.org/2000/svg" xml:space="preserve" width="0.666362in" height="0.667362in" version="1.0" style="shape-rendering:geometricPrecision; text-rendering:geometricPrecision; image-rendering:optimizeQuality; fill-rule:evenodd; clip-rule:evenodd"
viewBox="0 0 71 71"
 xmlns:xlink="http://www.w3.org/1999/xlink">
 <defs>
  <style type="text/css">
   <![CDATA[
    .fil0 {fill:#F4F8F8}
   ]]>
  </style>
 </defs>
 <g id="Layer_x0020_1">
  <metadata id="CorelCorpID_0Corel-Layer"/>
  <path class="fil0" d="M34 30c-2,0 -2,0 -4,1 -5,2 -7,4 -10,7 -4,4 -7,9 -8,16 -1,6 1,13 7,16 2,1 6,2 9,1 4,-1 5,-3 9,-2 2,0 3,2 9,2 3,1 6,-1 8,-3 3,-2 4,-3 5,-7 2,-9 -3,-18 -9,-24 -3,-3 -10,-8 -16,-7zm-27 -12c-8,2 -9,14 -4,20 1,2 4,4 6,4 7,-2 10,-14 4,-21 -1,-2 -3,-4 -6,-3zm48 12l0 0c0,6 2,12 9,12 2,-1 4,-3 5,-5 4,-7 3,-19 -6,-19 -3,0 -5,2 -6,4 -2,2 -2,4 -2,8zm-40 -20c0,4 0,6 2,9 1,2 3,4 6,5 6,1 9,-5 10,-11 0,-3 -1,-6 -2,-8 -5,-9 -16,-5 -16,5zm31 -10c-2,1 -4,2 -6,5 -4,7 0,20 9,19 2,-1 4,-3 5,-5 4,-5 4,-16 -3,-18 -2,-1 -3,-1 -5,-1zm-10 39c-4,0 -7,3 -9,5 -9,8 -7,18 -2,18 2,1 3,-1 5,-1 3,-2 8,-2 12,0 2,1 6,4 8,-2 1,-2 0,-5 0,-7 -2,-5 -9,-13 -14,-13z"/>
 </g>
</svg>
