<?xml version="1.0" encoding="UTF-8"?>
<!DOCTYPE svg PUBLIC "-//W3C//DTD SVG 1.0//EN" "http://www.w3.org/TR/2001/REC-SVG-20010904/DTD/svg10.dtd">
<!-- Creator: CorelDRAW X7 -->
<svg xmlns="http://www.w3.org/2000/svg" xml:space="preserve" width="1.34067in" height="1.34067in" version="1.0" style="shape-rendering:geometricPrecision; text-rendering:geometricPrecision; image-rendering:optimizeQuality; fill-rule:evenodd; clip-rule:evenodd"
viewBox="0 0 438 438"
 xmlns:xlink="http://www.w3.org/1999/xlink">
 <defs>
  <style type="text/css">
   <![CDATA[
    .fil11 {fill:none}
    .fil0 {fill:#F4F8F8}
    .fil2 {fill:#FEFEFE;fill-rule:nonzero}
    .fil4 {fill:#F7C3B9;fill-rule:nonzero}
    .fil6 {fill:#F4B3AC;fill-rule:nonzero}
    .fil5 {fill:#F4AEA1;fill-rule:nonzero}
    .fil8 {fill:#F3ADB2;fill-rule:nonzero}
    .fil7 {fill:#F29F96;fill-rule:nonzero}
    .fil10 {fill:#EE817C;fill-rule:nonzero}
    .fil1 {fill:#EC6F54;fill-rule:nonzero}
    .fil3 {fill:#3B4A9A;fill-rule:nonzero}
    .fil9 {fill:#2E3778;fill-rule:nonzero}
    .fil12 {fill:#49509E;fill-rule:nonzero}
   ]]>
  </style>
    <clipPath id="id0">
     <path d="M219 427c115,0 208,-93 208,-208 0,-115 -93,-208 -208,-208 -115,0 -208,93 -208,208 0,115 93,208 208,208z"/>
    </clipPath>
 </defs>
 <g id="Layer_x0020_1">
  <metadata id="CorelCorpID_0Corel-Layer"/>
  <g id="_1359329921408">
   <path class="fil0" d="M219 427c115,0 208,-93 208,-208 0,-115 -93,-208 -208,-208 -115,0 -208,93 -208,208 0,115 93,208 208,208z"/>
   <g style="clip-path:url(#id0)">
    <g>
     <g>
      <path id="1" class="fil1" d="M219 321c89,0 134,-31 144,-63 6,-21 -31,11 -35,-106 -1,-57 -30,-102 -109,-102 -79,0 -106,45 -109,102 -7,130 -47,76 -36,108 10,30 56,61 145,61z"/>
      <path class="fil2" d="M331 427l-224 0 0 -9c0,-62 50,-112 112,-112 62,0 112,50 112,112l0 9z"/>
      <path class="fil3" d="M271 317c0,6 -1,46 0,56 0,13 -105,14 -106,1 0,-10 -1,-27 -1,-56 -34,17 -57,53 -57,94l0 15 224 0 0 -15c0,-42 -24,-78 -60,-95z"/>
      <path class="fil4" d="M136 198c-3,-10 -14,-18 -24,-16 -11,2 -19,12 -18,23 1,11 11,20 21,23 11,3 23,2 34,-1l-13 -29z"/>
      <path class="fil5" d="M134 218c0,0 -1,0 -1,-1 -2,-5 -6,-11 -11,-14 -5,-4 -11,-6 -18,-6 -1,0 -1,-1 -1,-2 0,-1 1,-1 1,-1 0,0 0,0 0,0 7,0 14,2 20,6 5,4 9,10 12,16 0,1 0,2 -1,2l-1 0z"/>
      <path class="fil4" d="M302 198c2,-10 13,-18 24,-16 10,2 19,12 18,23 -1,11 -11,20 -22,23 -11,3 -22,2 -34,-1l14 -29z"/>
      <path class="fil5" d="M303 218l0 0c-1,0 -2,-1 -1,-2 2,-6 6,-12 12,-16 6,-4 12,-6 19,-6 0,0 0,0 0,0 1,0 2,0 2,1 0,1 -1,2 -2,2 -6,0 -12,2 -17,6 -5,3 -9,9 -11,14 -1,1 -1,1 -2,1z"/>
      <path class="fil6" d="M219 361c-20,0 -35,-16 -35,-35l0 -63 70 0 0 63c0,19 -16,35 -35,35z"/>
      <path class="fil7" d="M184 319l0 -56 70 0 0 42c-22,10 -46,13 -70,14z"/>
      <path class="fil4" d="M219 300l0 0c-51,0 -93,-41 -93,-92l0 -20c0,-51 42,-93 93,-93 51,0 92,42 92,93l0 20c0,51 -41,92 -92,92z"/>
      <path class="fil8" d="M258 211c2,8 13,12 24,10 11,-3 18,-11 16,-20 -1,-8 -12,-12 -23,-10 -11,3 -19,11 -17,20zm-78 0c-2,8 -13,12 -24,10 -11,-3 -19,-11 -17,-20 2,-8 13,-12 24,-10 11,3 18,11 17,20z"/>
      <path class="fil9" d="M255 177c0,-3 -6,-3 -7,0 -1,5 -1,11 1,14 1,2 4,2 5,0 3,-3 2,-9 1,-14zm-66 14c-2,2 -4,2 -6,0 -2,-3 -1,-9 -1,-14 1,-3 7,-3 8,0 1,5 1,11 -1,14z"/>
      <path class="fil10" d="M219 223c-7,0 -13,-6 -13,-13l0 -2c0,-1 1,-2 2,-2 1,0 1,1 1,2l0 2c0,6 5,10 10,10 5,0 9,-4 9,-10l0 -2c0,-1 1,-2 2,-2 1,0 1,1 1,2l0 2c0,7 -5,13 -12,13z"/>
      <path class="fil10" d="M219 196c0,0 0,0 -1,-1 -2,0 -4,-2 -5,-4 -1,-2 -1,-5 1,-7 1,-2 3,-3 5,-3 2,0 4,1 5,2 0,0 0,1 -1,2 0,0 -1,0 -1,-1 -1,0 -2,0 -3,0 -1,0 -2,0 -3,1 -1,2 -1,3 -1,5 1,2 2,3 4,3 1,0 3,-1 4,-2 0,0 1,-1 2,0 0,0 0,1 0,1 -1,2 -3,4 -6,4z"/>
      <path class="fil1" d="M121 187c38,4 130,-22 139,-75 0,0 6,51 56,75 0,0 23,-124 -95,-124 -119,0 -100,124 -100,124z"/>
     </g>
    </g>
   </g>
   <path class="fil11" d="M219 427c115,0 208,-93 208,-208 0,-115 -93,-208 -208,-208 -115,0 -208,93 -208,208 0,115 93,208 208,208z"/>
   <path class="fil12" d="M219 416c54,0 103,-22 139,-58 36,-36 58,-85 58,-139 0,-55 -22,-104 -58,-140 -36,-35 -85,-57 -139,-57 -55,0 -104,22 -140,57 -35,36 -57,85 -57,140 0,54 22,103 57,139 36,36 85,58 140,58zm155 -42c-40,39 -95,64 -155,64 -61,0 -115,-25 -155,-64 -40,-40 -64,-95 -64,-155 0,-61 24,-115 64,-155 40,-40 94,-64 155,-64 60,0 115,24 155,64 39,40 64,94 64,155 0,60 -25,115 -64,155z"/>
  </g>
 </g>
</svg>
